<svg xmlns="http://www.w3.org/2000/svg" width="1920" height="500" fill="#f2f2f4">
  <path
    d="m1920 29-4.81.456-4.81.455-4.82.455-4.81.455-4.81.454-4.81.454-4.81.453-4.82.453-4.81.451-4.81.45-4.81.45-4.81.448-4.82.447-4.81.445-4.81.444-4.81.442-4.81.44-4.82.439-4.81.436-4.81.434-4.81.433-4.81.43-4.82.427-4.81.425-4.81.422-4.81.42-4.81.416-4.82.414-4.81.41-4.81.408-4.81.404-4.81.4-4.82.398-4.81.394-4.81.39-4.81.387-4.82.383-4.81.378-4.81.375-4.81.37-4.81.367-4.82.362-4.81.358-4.81.353-4.81.349-4.81.344-4.82.34-4.81.334-4.81.33-4.81.324-4.81.32-4.82.314-4.81.31-4.81.303-4.81.299-4.81.293-4.82.288-4.81.281-4.81.277-4.81.27-4.81.265-4.82.26-4.81.252-4.81.248-4.81.24-4.81.236-4.82.228-4.81.223-4.81.216-4.81.21-4.81.204-4.82.197-4.81.19-4.81.185-4.81.177-4.81.172-4.82.164-4.81.157-4.81.152-4.81.144-4.81.137-4.82.13-4.81.124-4.81.117-4.81.11-4.81.103-4.82.096-4.81.088-4.81.082-4.81.075-4.81.068-4.82.06-4.81.054-4.81.046-4.81.04-4.81.032-4.82.025-4.81.018-4.81.01-4.81.004-4.82-.004-4.81-.01-4.81-.018-4.81-.025-4.81-.032-4.82-.04-4.81-.046-4.81-.054-4.81-.06-4.81-.068-4.82-.075-4.81-.082-4.81-.088-4.81-.096-4.81-.103-4.82-.11-4.81-.117-4.81-.123-4.81-.131-4.81-.137-4.82-.145-4.81-.15-4.81-.158-4.81-.164-4.81-.172-4.82-.177-4.81-.184-4.81-.191-4.81-.197-4.81-.204-4.82-.21-4.81-.216-4.81-.223-4.81-.228-4.81-.235-4.82-.241-4.81-.248-4.81-.253-4.81-.259-4.81-.264-4.82-.271-4.81-.277-4.81-.282-4.81-.287-4.81-.293-4.82-.299-4.81-.304-4.81-.309-4.81-.314-4.81-.32-4.82-.325-4.81-.33-4.81-.334-4.81-.339-4.81-.344-4.82-.349-4.81-.353-4.81-.358-4.81-.362-4.81-.366-4.82-.37-4.81-.376-4.81-.378-4.81-.383-4.81-.386-4.82-.39-4.81-.395-4.81-.397-4.81-.401-4.82-.404-4.81-.408-4.81-.41-4.81-.414-4.81-.417-4.82-.42-4.81-.421-4.81-.425-4.81-.428-4.81-.43-4.82-.431-4.81-.435-4.81-.436-4.81-.439-4.81-.44-4.82-.442-4.81-.444-4.81-.445-4.81-.447-4.81-.448-4.82-.45-4.81-.45-4.81-.451-4.812-.453-4.812-.453-4.812-.454-4.812-.454-4.812-.455-4.812-.455-4.812-.456-4.812-.455-4.812-.456-4.812-.455-4.812-.455-4.812-.455-4.812-.454-4.812-.454-4.812-.453-4.812-.453-4.812-.451-4.812-.45-4.812-.45-4.812-.448-4.812-.447-4.812-.445-4.812-.444-4.812-.442-4.812-.44-4.812-.439-4.813-.436-4.812-.434-4.812-.433-4.812-.43-4.812-.427-4.812-.425-4.812-.422-4.812-.42-4.812-.416-4.812-.414-4.812-.41-4.812-.408-4.812-.404-4.812-.4-4.812-.398-4.812-.394-4.812-.39-4.812-.387-4.812-.383-4.812-.378-4.812-.375-4.812-.37-4.812-.367-4.812-.362-4.812-.358-4.812-.353-4.812-.349-4.812-.344-4.812-.34-4.812-.334-4.812-.33-4.812-.324-4.812-.32-4.812-.314-4.813-.31-4.812-.303-4.812-.299-4.812-.293-4.812-.288-4.812-.281-4.812-.277-4.812-.27-4.812-.265-4.812-.26-4.812-.252-4.812-.247-4.812-.242L640 4.038l-4.812-.228-4.812-.223-4.812-.216-4.812-.21-4.812-.204-4.812-.197-4.812-.19-4.812-.185-4.812-.177-4.812-.171-4.812-.165-4.812-.158-4.812-.15-4.812-.145-4.812-.137-4.812-.13-4.812-.124-4.812-.117-4.812-.11-4.812-.103-4.813-.095-4.812-.09-4.812-.081-4.812-.075-4.812-.068-4.812-.06-4.812-.054-4.812-.046-4.812-.04-4.812-.032-4.812-.025-4.812-.018-4.812-.01L476.391 0l-4.812.004-4.812.01-4.812.018-4.812.025-4.812.032-4.812.04-4.812.046-4.812.054-4.812.06-4.812.068-4.812.075-4.812.082-4.812.089-4.812.095-4.812.103-4.812.11-4.812.117-4.812.123-4.812.131-4.813.137-4.812.145-4.812.15-4.812.158-4.812.165-4.812.17-4.812.178-4.812.184-4.812.191-4.812.197-4.812.204-4.812.21-4.812.216-4.812.223-4.812.228-4.812.235-4.812.242-4.812.247-4.812.253-4.812.259-4.812.265-4.812.27-4.812.277-4.812.281-4.812.288-4.812.293-4.812.299-4.812.304-4.812.309-4.812.314-4.812.32-4.812.325-4.812.33-4.812.334-4.813.339-4.812.344-4.812.349-4.812.353-4.812.358-4.812.362-4.812.366-4.812.37-4.812.376-4.812.378-4.812.383-4.812.386-4.812.39-4.812.395-4.812.397-4.812.401-4.812.404-4.812.408-4.812.41-4.812.414-4.812.417-4.812.42-4.812.421-4.812.425-4.812.428-4.812.43-4.812.431-4.812.435-4.812.436-4.812.439-4.813.44-4.812.442-4.811.444-4.813.445-4.812.447-4.812.448-4.812.45-4.812.45-4.812.451-4.812.453-4.812.453-4.812.454-4.812.454-4.812.455-4.812.455L0 28.545V850h1920V29Z" />
  <path
    d="m0 1069 4.812-.46 4.812-.45 4.812-.46 4.812-.45 4.812-.46 4.812-.45 4.812-.45 4.812-.45 4.812-.46 4.812-.45 4.812-.45 4.812-.44 4.812-.45 4.812-.45 4.813-.44 4.812-.44 4.812-.44 4.811-.44 4.813-.44 4.812-.43 4.812-.43 4.812-.43 4.812-.43 4.812-.43 4.812-.42 4.812-.42 4.812-.41 4.812-.42 4.812-.41 4.812-.41 4.812-.4 4.812-.4 4.812-.4 4.812-.39 4.812-.39 4.812-.39 4.812-.38 4.812-.38 4.812-.38 4.812-.37 4.812-.36 4.812-.36 4.812-.36 4.812-.36 4.812-.34 4.812-.35 4.812-.34 4.812-.33 4.812-.33 4.812-.33 4.813-.32 4.812-.31 4.812-.31 4.812-.3 4.812-.3 4.812-.29 4.812-.29 4.812-.28 4.812-.28 4.812-.27 4.812-.27 4.812-.26 4.812-.25 4.812-.25 4.812-.24 4.812-.23 4.812-.23 4.812-.22 4.812-.22 4.812-.21 4.812-.2 4.812-.2 4.812-.19 4.812-.18 4.812-.18 4.812-.17 4.812-.17 4.812-.16 4.812-.15 4.812-.14 4.812-.14 4.812-.13 4.812-.12 4.813-.12 4.812-.11 4.812-.1 4.812-.1 4.812-.09 4.812-.08 4.812-.07 4.812-.07 4.812-.06 4.812-.05 4.812-.05 4.812-.04 4.812-.03 4.812-.03 4.812-.02 4.812-.01h9.624l4.812.01 4.812.02 4.812.03 4.812.03 4.812.04 4.812.05 4.812.05 4.812.06 4.812.07 4.812.07 4.812.08 4.812.09 4.812.1 4.812.1 4.812.11 4.813.12 4.812.12 4.812.13 4.812.14 4.812.14 4.812.15 4.812.16 4.812.17 4.812.17 4.812.18 4.812.18 4.812.19 4.812.2 4.812.2 4.812.21 4.812.22 4.812.22 4.812.23 4.812.23 4.812.24 4.812.25 4.812.25 4.812.26 4.812.27 4.812.27 4.812.28 4.812.28 4.812.29 4.812.29 4.812.3 4.812.3 4.812.31 4.812.31 4.813.32 4.812.33 4.812.33 4.812.33 4.812.34 4.812.35 4.812.34 4.812.36 4.812.36 4.812.36 4.812.36 4.812.37 4.812.38 4.812.38 4.812.38 4.812.39 4.812.39 4.812.39 4.812.4 4.812.4 4.812.4 4.812.41 4.812.41 4.812.42 4.812.41 4.812.42 4.812.42 4.812.43 4.812.43 4.812.43 4.812.43 4.812.43 4.812.44 4.812.44 4.813.44 4.812.44 4.812.44 4.812.45 4.812.45 4.812.44 4.812.45 4.812.45 4.812.46 4.812.45 4.812.45 4.812.45 4.812.46 4.812.45 4.812.46 4.812.45 4.812.46 4.812.46 4.812.45 4.812.46 4.812.45 4.812.46 4.812.45 4.812.45 4.81.45 4.81.46 4.82.45 4.81.45 4.81.44 4.81.45 4.81.45 4.82.44 4.81.44 4.81.44 4.81.44 4.81.44 4.82.43 4.81.43 4.81.43 4.81.43 4.81.43 4.82.42 4.81.42 4.81.41 4.81.42 4.81.41 4.82.41 4.81.4 4.81.4 4.81.4 4.82.39 4.81.39 4.81.39 4.81.38 4.81.38 4.82.38 4.81.37 4.81.36 4.81.36 4.81.36 4.82.36 4.81.34 4.81.35 4.81.34 4.81.33 4.82.33 4.81.33 4.81.32 4.81.31 4.81.31 4.82.3 4.81.3 4.81.29 4.81.29 4.81.28 4.82.28 4.81.27 4.81.27 4.81.26 4.81.25 4.82.25 4.81.24 4.81.23 4.81.23 4.81.22 4.82.22 4.81.21 4.81.2 4.81.2 4.81.19 4.82.18 4.81.18 4.81.17 4.81.17 4.81.16 4.82.15 4.81.14 4.81.14 4.81.13 4.81.12 4.82.12 4.81.11 4.81.1 4.81.1 4.81.09 4.82.08 4.81.07 4.81.07 4.81.06 4.81.05 4.82.05 4.81.04 4.81.03 4.81.03 4.81.02 4.82.01h9.62l4.81-.01 4.82-.02 4.81-.03 4.81-.03 4.81-.04 4.81-.05 4.82-.05 4.81-.06 4.81-.07 4.81-.07 4.81-.08 4.82-.09 4.81-.1 4.81-.1 4.81-.11 4.81-.12 4.82-.12 4.81-.13 4.81-.14 4.81-.14 4.81-.15 4.82-.16 4.81-.17 4.81-.17 4.81-.18 4.81-.18 4.82-.19 4.81-.2 4.81-.2 4.81-.21 4.81-.22 4.82-.22 4.81-.23 4.81-.23 4.81-.24 4.81-.25 4.82-.25 4.81-.26 4.81-.27 4.81-.27 4.81-.28 4.82-.28 4.81-.29 4.81-.29 4.81-.3 4.81-.3 4.82-.31 4.81-.31 4.81-.32 4.81-.33 4.81-.33 4.82-.33 4.81-.34 4.81-.35 4.81-.34 4.81-.36 4.82-.36 4.81-.36 4.81-.36 4.81-.37 4.81-.38 4.82-.38 4.81-.38 4.81-.39 4.81-.39 4.81-.39 4.82-.4 4.81-.4 4.81-.4 4.81-.41 4.82-.41 4.81-.42 4.81-.41 4.81-.42 4.81-.42 4.82-.43 4.81-.43 4.81-.43 4.81-.43 4.81-.43 4.82-.44 4.81-.44 4.81-.44 4.81-.44 4.81-.44 4.82-.45 4.81-.45 4.81-.44 4.81-.45 4.81-.45 4.82-.46 4.81-.45 4.81-.45 4.81-.45 4.81-.46 4.82-.45 4.81-.46 4.81-.45V248H0v821Z" />
</svg>
